<?xml version="1.0" encoding="UTF-8" standalone="no"?>
<svg
   xmlns:dc="http://purl.org/dc/elements/1.1/"
   xmlns:cc="http://creativecommons.org/ns#"
   xmlns:rdf="http://www.w3.org/1999/02/22-rdf-syntax-ns#"
   xmlns:svg="http://www.w3.org/2000/svg"
   xmlns="http://www.w3.org/2000/svg"
   id="svg2334"
   version="1.1"
   viewBox="0 0 90 90"
   height="90mm"
   width="90mm">
  <defs
     id="defs2328" />
  <metadata
     id="metadata2331">
    <rdf:RDF>
      <cc:Work
         rdf:about="">
        <dc:format>image/svg+xml</dc:format>
        <dc:type
           rdf:resource="http://purl.org/dc/dcmitype/StillImage" />
        <dc:title></dc:title>
      </cc:Work>
    </rdf:RDF>
  </metadata>
  <g
     transform="translate(0,-207)"
     id="layer1">
    <g
       id="g4648"
       transform="matrix(0.35277777,0,0,-0.35277777,-160.63848,535.58932)">
      <path
         id="path414"
         style="fill:#fff;fill-opacity:1;fill-rule:nonzero;stroke:none;stroke-width:0.1"
         d="m 646.524,797.09 c -1.168,-9.27 -4.471,-14.18 -9.5,-18.1 -5.03,-3.91 -15.15,-5.92 -23.331,-2.48 -9.78,4.13 -13.936,9.85 -16.032,15.72 -1.226,3.43 -4.847,15.85 2.48,21.83 7.327,5.98 16.412,7.12 23.261,6.85 10.338,-0.42 15.019,-3.43 17.603,-4.96 2.585,-1.54 6.706,-9.43 5.519,-18.86 z m -70.308,-4.86 c -2.095,-5.87 -6.252,-11.59 -16.031,-15.72 -8.181,-3.44 -18.302,-1.43 -23.331,2.48 -5.03,3.92 -8.333,8.83 -9.5,18.1 -1.188,9.43 2.933,17.32 5.518,18.86 2.585,1.53 7.265,4.54 17.603,4.96 6.849,0.27 15.935,-0.87 23.261,-6.85 7.327,-5.98 3.706,-18.4 2.48,-21.83 z m 75.958,24.11 c -3.222,1.3 -16.034,6.16 -30.099,6.94 -14.13,0.79 -21.784,-5.53 -24.517,-8.12 -0.586,-0.56 -1.391,-0.82 -2.192,-0.71 -1.969,0.27 -5.785,0.75 -8.427,0.8 -2.643,-0.05 -6.459,-0.53 -8.428,-0.8 -0.8,-0.11 -1.606,0.15 -2.192,0.71 -2.732,2.59 -10.387,8.91 -24.517,8.12 -14.064,-0.78 -26.877,-5.64 -30.099,-6.94 -0.471,-0.19 -0.776,-0.65 -0.776,-1.16 v -4.37 c 0,-0.62 0.461,-1.14 1.075,-1.23 1.999,-0.33 2.977,-1.46 2.977,-1.46 -0.28,-4.89 -0.21,-12.43 1.327,-17.39 1.537,-4.96 5.448,-15.79 19.349,-17.95 13.901,-2.17 22.772,3.28 29.339,11.94 5.619,7.42 5.816,19.23 5.755,22.48 -0.012,0.64 0.425,1.19 1.049,1.32 1.791,0.37 5.141,0.37 5.141,0.37 0,0 3.349,0 5.141,-0.37 0.623,-0.13 1.06,-0.68 1.048,-1.32 -0.06,-3.25 0.136,-15.06 5.756,-22.48 6.566,-8.66 15.437,-14.11 29.338,-11.94 13.901,2.16 17.813,12.99 19.349,17.95 1.537,4.96 1.607,12.5 1.328,17.39 0,0 0.977,1.13 2.977,1.46 0.614,0.09 1.074,0.61 1.074,1.23 v 4.37 c 0,0.51 -0.305,0.97 -0.776,1.16" />
      <path
         id="path416"
         style="fill:#fff;fill-opacity:1;fill-rule:nonzero;stroke:none;stroke-width:0.1"
         d="m 607.454,716.42 c -1.884,-7.4 -17.833,-4.94 -20.191,-4.48 v 0.07 c 0,0 -0.067,-0.01 -0.184,-0.03 -0.116,0.02 -0.183,0.03 -0.183,0.03 v -0.07 c -2.358,-0.46 -18.307,-2.92 -20.192,4.48 -2.056,8.08 -2.79,31.86 1.615,30.98 4.274,-0.85 13.618,-6.27 18.76,-0.18 5.143,-6.09 14.486,-0.67 18.76,0.18 4.406,0.88 3.671,-22.9 1.615,-30.98 z m 31.867,56.98 c -2.35,-2.06 -8.518,-3.68 -8.518,-3.68 -0.587,-5.72 -3.524,-16 -7.049,-18.5 -3.524,-2.49 -8.517,7.2 -16.887,11.6 -5.803,3.06 -15.475,-0.01 -19.788,-2.41 -4.312,2.4 -13.984,5.47 -19.787,2.41 -8.371,-4.4 -13.363,-14.09 -16.888,-11.6 -3.524,2.5 -6.461,12.78 -7.048,18.5 0,0 -6.168,1.62 -8.518,3.68 0,0 -5.727,-27.02 -4.258,-40.39 1.464,-13.33 9.229,-42.71 56.316,-42.87 v -0.01 c 0.063,0 0.121,0.01 0.183,0.01 0.063,0 0.121,-0.01 0.184,-0.01 v 0.01 c 47.087,0.16 54.852,29.54 56.316,42.87 1.469,13.37 -4.258,40.39 -4.258,40.39" />
      <path
         id="path418"
         style="fill:#fff;fill-opacity:1;fill-rule:nonzero;stroke:none;stroke-width:0.1"
         d="m 572.688,737.01 c -0.84,0.76 -3.854,-1.21 -1.542,-2.97 2.313,-1.76 10.243,-4.22 20.596,-2.28 0,0 -14.428,1.07 -19.054,5.25" />
      <path
         id="path420"
         style="fill:#fff;fill-opacity:1;fill-rule:nonzero;stroke:none;stroke-width:0.1"
         d="m 651.179,805.11 c -0.807,-0.04 -1.762,0 -1.762,-1.17 0,-1.17 0.807,-1.1 1.762,-1.17 0.954,-0.08 2.423,0.22 2.496,-2.79 0.073,-3.02 -0.955,-13.44 -4.405,-20.05 -3.451,-6.61 -6.902,-9.1 -6.021,-10.5 0.881,-1.39 4.038,3.52 5.58,6.17 1.542,2.64 7.636,14.46 6.755,27.39 0,0 -0.514,2.34 -4.405,2.12" />
      <path
         id="path422"
         style="fill:#fff;fill-opacity:1;fill-rule:nonzero;stroke:none;stroke-width:0.1"
         d="m 522.687,800.86 c 0.446,0.12 1.248,0.95 0.66,2.05 -0.587,1.1 -3.157,3.53 -5.727,3.31 -2.569,-0.22 -4.478,-3.01 -4.478,-5.14 0,-2.13 -0.514,-12.41 4.772,-22.1 5.287,-9.7 7.489,-12.85 7.857,-9.33 0,0 -5.214,7.71 -7.123,11.82 -1.909,4.11 -5.286,16.45 -3.304,21.22 0,0 2.423,3.09 4.259,1.03 1.835,-2.06 1.542,-3.3 3.084,-2.86" />
      <path
         id="path424"
         style="fill:#fff;fill-opacity:1;fill-rule:nonzero;stroke:none;stroke-width:0.1"
         d="m 520.117,815.03 c 0,0 8.59,3.82 10.426,4.4 0,0 -8.077,33.41 23.936,33.41 0,0 16.888,15.02 48.937,11.05 32.05,-3.96 38.107,-21.59 39.209,-27.64 1.101,-6.06 0.55,-17.96 0.55,-17.96 l 4.846,-1.21 c 0,0 3.194,20.93 -3.744,29.96 0,0 26.212,39.87 -11.785,65.09 0,0 3.304,-4.3 2.754,-8.04 0,0 -6.498,7.05 -14.759,9.25 0,0 2.864,-2.2 3.084,-5.06 0,0 -10.132,5.94 -13.326,6.93 -3.194,1 -8.701,-3.19 -13.437,-7.38 -4.736,-4.18 -12.005,-10.46 -22.027,-11.45 -10.022,-0.99 -25.111,0.88 -33.371,-13.99 0,0 -18.136,3.05 -26.506,-23.68 -8.371,-26.72 5.213,-43.68 5.213,-43.68" />
      <path
         id="path426"
         style="fill:#28292a;fill-opacity:1;fill-rule:nonzero;stroke:none;stroke-width:0.1"
         d="m 592.219,771.56 c 1.185,0.44 0.588,-1.62 -1.762,-2.28 -2.35,-0.66 -7.342,-0.8 -9.912,0.37 -2.57,1.18 0.734,1.1 1.542,1.1 0.807,0 4.185,-1.39 10.132,0.81" />
      <path
         id="path428"
         style="fill:#fff;fill-opacity:1;fill-rule:nonzero;stroke:none;stroke-width:0.1"
         d="m 562.121,802.74 -5.513,-5.26 2.24,7.26 c -0.713,0.22 -1.455,0.37 -2.24,0.37 -4.217,0 -7.636,-3.41 -7.636,-7.63 0,-4.22 3.419,-7.64 7.636,-7.64 4.218,0 7.636,3.42 7.636,7.64 0,2.04 -0.815,3.89 -2.123,5.26" />
      <path
         id="path430"
         style="fill:#fff;fill-opacity:1;fill-rule:nonzero;stroke:none;stroke-width:0.1"
         d="m 622.916,802.74 -5.512,-5.26 2.239,7.26 c -0.713,0.22 -1.455,0.37 -2.239,0.37 -4.218,0 -7.637,-3.41 -7.637,-7.63 0,-4.22 3.419,-7.64 7.637,-7.64 4.217,0 7.635,3.42 7.635,7.64 0,2.04 -0.815,3.89 -2.123,5.26" />
    </g>
  </g>
</svg>
